# xmcd
#
# Track frame offsets:
#	150
#	15458
#	26191
#	38985
#	59643
#	71422
#	81442
#	94046
#	114344
#	125970
#	143311
#	155882
#	171897
#	189166
#	201921
#	217154
#
# Disc length: 3062 seconds
#
# Revision: 1
# Processed by: cddbd v1.5.1PL0 Copyright (c) Steve Scherf et al.
# Submitted via: audiograbber 1.83.01
#
DISCID=ea0bf410
DTITLE=Albert King - King of the blues Guitar
DYEAR=1969
DGENRE=Blues
TTITLE0=Laundromat Blues
TTITLE1=Overall Junction
TTITLE2=Oh, Pretty Woman
TTITLE3=Funk-Shun
TTITLE4=Crosscut Saw
TTITLE5=Down Don't Bother Me
TTITLE6=Born Under A Bad Sign
TTITLE7=Personal Manager
TTITLE8=Kansas City
TTITLE9=The Very Thought Of You
TTITLE10=The Hunter
TTITLE11=I Almost Lost My Mind
TTITLE12=As the Years Go Passing By
TTITLE13=Cold Feet
TTITLE14=You Sure Drive A Hard Bargain
TTITLE15=(I Love) Lucy
EXTD=
EXTT0=
EXTT1=
EXTT2=
EXTT3=
EXTT4=
EXTT5=
EXTT6=
EXTT7=
EXTT8=
EXTT9=
EXTT10=
EXTT11=
EXTT12=
EXTT13=
EXTT14=
EXTT15=
PLAYORDER=
